<svg width="32" height="32" viewBox="0 0 32 32" fill="none" xmlns="http://www.w3.org/2000/svg">
<path d="M16.125 0C17.5593 0 18.9428 0.183105 20.2754 0.549316C21.608 0.915527 22.849 1.4445 23.9985 2.13623C25.148 2.82796 26.2009 3.64176 27.1571 4.57764C28.1133 5.51351 28.9322 6.56637 29.6138 7.73621C30.2953 8.90605 30.8192 10.1522 31.1854 11.4746C31.5516 12.797 31.7398 14.1805 31.75 15.625C31.75 17.0593 31.5669 18.4428 31.2007 19.7754C30.8345 21.108 30.3055 22.349 29.6138 23.4985C28.922 24.648 28.1082 25.7009 27.1724 26.6571C26.2365 27.6133 25.1836 28.4322 24.0138 29.1138C22.844 29.7953 21.5978 30.3192 20.2754 30.6854C18.953 31.0516 17.5695 31.2398 16.125 31.25C14.6907 31.25 13.3072 31.0669 11.9746 30.7007C10.642 30.3345 9.40096 29.8055 8.25146 29.1138C7.10197 28.422 6.04911 27.6082 5.0929 26.6724C4.13668 25.7365 3.31779 24.6836 2.63623 23.5138C1.95467 22.344 1.43079 21.0978 1.06458 19.7754C0.698364 18.453 0.510173 17.0695 0.5 15.625C0.5 14.1907 0.683105 12.8072 1.04932 11.4746C1.41553 10.142 1.9445 8.90096 2.63623 7.75146C3.32796 6.60197 4.14176 5.54911 5.07764 4.5929C6.01351 3.63668 7.06637 2.81779 8.23621 2.13623C9.40605 1.45467 10.6522 0.930786 11.9746 0.564575C13.297 0.198364 14.6805 0.0101725 16.125 0ZM25.326 10.4523L23.2509 8.37708L13.1953 18.4326L8.99915 14.2365L6.92395 16.3116L13.1953 22.583L25.326 10.4523Z" fill="#6FD34C"/>
</svg>
