<svg width="40" height="40" viewBox="0 0 40 40" fill="none" xmlns="http://www.w3.org/2000/svg">
<path d="M19.625 4C21.0593 4 22.4428 4.18311 23.7754 4.54932C25.108 4.91553 26.349 5.4445 27.4985 6.13623C28.648 6.82796 29.7009 7.64176 30.6571 8.57764C31.6133 9.51351 32.4322 10.5664 33.1138 11.7362C33.7953 12.906 34.3192 14.1522 34.6854 15.4746C35.0516 16.797 35.2398 18.1805 35.25 19.625C35.25 21.0593 35.0669 22.4428 34.7007 23.7754C34.3345 25.108 33.8055 26.349 33.1138 27.4985C32.422 28.648 31.6082 29.7009 30.6724 30.6571C29.7365 31.6133 28.6836 32.4322 27.5138 33.1138C26.344 33.7953 25.0978 34.3192 23.7754 34.6854C22.453 35.0516 21.0695 35.2398 19.625 35.25C18.1907 35.25 16.8072 35.0669 15.4746 34.7007C14.142 34.3345 12.901 33.8055 11.7515 33.1138C10.602 32.422 9.54911 31.6082 8.5929 30.6724C7.63668 29.7365 6.81779 28.6836 6.13623 27.5138C5.45467 26.344 4.93079 25.0978 4.56458 23.7754C4.19836 22.453 4.01017 21.0695 4 19.625C4 18.1907 4.18311 16.8072 4.54932 15.4746C4.91553 14.142 5.4445 12.901 6.13623 11.7515C6.82796 10.602 7.64176 9.54911 8.57764 8.5929C9.51351 7.63668 10.5664 6.81779 11.7362 6.13623C12.906 5.45467 14.1522 4.93079 15.4746 4.56458C16.797 4.19836 18.1805 4.01017 19.625 4ZM28.826 14.4523L26.7509 12.3771L16.6953 22.4326L12.4991 18.2365L10.424 20.3116L16.6953 26.583L28.826 14.4523Z" fill="#6C6E70"/>
</svg>
