<svg width="40" height="40" viewBox="0 0 40 40" fill="none" xmlns="http://www.w3.org/2000/svg">
<path d="M3 14C3 10.8567 3 9.28671 3.97667 8.31004C4.95333 7.33337 6.52333 7.33337 9.66667 7.33337H29.6667C32.81 7.33337 34.38 7.33337 35.3567 8.31004C36.3333 9.28671 36.3333 10.8567 36.3333 14C36.3333 14.785 36.3333 15.1784 36.09 15.4234C35.845 15.6667 35.45 15.6667 34.6667 15.6667H4.66667C3.88167 15.6667 3.48833 15.6667 3.24333 15.4234C3 15.1784 3 14.7834 3 14ZM3 29C3 32.1434 3 33.7134 3.97667 34.69C4.95333 35.6667 6.52333 35.6667 9.66667 35.6667H29.6667C32.81 35.6667 34.38 35.6667 35.3567 34.69C36.3333 33.7134 36.3333 32.1434 36.3333 29V20.6667C36.3333 19.8817 36.3333 19.4884 36.09 19.2434C35.845 19 35.45 19 34.6667 19H4.66667C3.88167 19 3.48833 19 3.24333 19.2434C3 19.4884 3 19.8834 3 20.6667V29Z" fill="#6C6E70"/>
<path d="M11.3333 4V9ZM28 4V9Z" fill="#6C6E70"/>
<path d="M11.3333 4V9M28 4V9" stroke="#6C6E70" stroke-width="2" stroke-linecap="round"/>
</svg>
