<svg width="40" height="40" viewBox="0 0 40 40" fill="none" xmlns="http://www.w3.org/2000/svg">
<path d="M33.5139 8.6875C33.9743 8.6875 34.4159 8.85212 34.7415 9.14515C35.0671 9.43817 35.25 9.8356 35.25 10.25C35.25 10.6644 35.0671 11.0618 34.7415 11.3549C34.4159 11.6479 33.9743 11.8125 33.5139 11.8125H31.7778L31.7726 11.9234L30.1528 32.3469C30.0904 33.1353 29.6984 33.8731 29.0558 34.4118C28.4131 34.9505 27.5675 35.25 26.6892 35.25H12.559C11.6808 35.25 10.8352 34.9505 10.1925 34.4118C9.54983 33.8731 9.15784 33.1353 9.09549 32.3469L7.47569 11.925C7.47306 11.8875 7.4719 11.85 7.47222 11.8125H5.73611C5.27567 11.8125 4.83408 11.6479 4.5085 11.3549C4.18291 11.0618 4 10.6644 4 10.25C4 9.8356 4.18291 9.43817 4.5085 9.14515C4.83408 8.85212 5.27567 8.6875 5.73611 8.6875H33.5139ZM23.0972 4C23.5577 4 23.9993 4.16462 24.3248 4.45765C24.6504 4.75067 24.8333 5.1481 24.8333 5.5625C24.8333 5.9769 24.6504 6.37433 24.3248 6.66735C23.9993 6.96038 23.5577 7.125 23.0972 7.125H16.1528C15.6923 7.125 15.2507 6.96038 14.9252 6.66735C14.5996 6.37433 14.4167 5.9769 14.4167 5.5625C14.4167 5.1481 14.5996 4.75067 14.9252 4.45765C15.2507 4.16462 15.6923 4 16.1528 4H23.0972Z" fill="#6C6E70"/>
</svg>
