<svg width="32" height="32" viewBox="0 0 32 32" fill="none" xmlns="http://www.w3.org/2000/svg">
<path d="M30.0139 4.6875C30.4743 4.6875 30.9159 4.85212 31.2415 5.14515C31.5671 5.43817 31.75 5.8356 31.75 6.25C31.75 6.6644 31.5671 7.06183 31.2415 7.35485C30.9159 7.64788 30.4743 7.8125 30.0139 7.8125H28.2778L28.2726 7.92344L26.6528 28.3469C26.5904 29.1353 26.1984 29.8731 25.5558 30.4118C24.9131 30.9505 24.0675 31.25 23.1892 31.25H9.05903C8.1808 31.25 7.33519 30.9505 6.69251 30.4118C6.04983 29.8731 5.65784 29.1353 5.59549 28.3469L3.97569 7.925C3.97306 7.88755 3.9719 7.85003 3.97222 7.8125H2.23611C1.77567 7.8125 1.33408 7.64788 1.0085 7.35485C0.682911 7.06183 0.5 6.6644 0.5 6.25C0.5 5.8356 0.682911 5.43817 1.0085 5.14515C1.33408 4.85212 1.77567 4.6875 2.23611 4.6875H30.0139ZM19.5972 0C20.0577 0 20.4993 0.16462 20.8248 0.457646C21.1504 0.750671 21.3333 1.1481 21.3333 1.5625C21.3333 1.9769 21.1504 2.37433 20.8248 2.66735C20.4993 2.96038 20.0577 3.125 19.5972 3.125H12.6528C12.1923 3.125 11.7507 2.96038 11.4252 2.66735C11.0996 2.37433 10.9167 1.9769 10.9167 1.5625C10.9167 1.1481 11.0996 0.750671 11.4252 0.457646C11.7507 0.16462 12.1923 0 12.6528 0H19.5972Z" fill="#6FD34C"/>
</svg>
