<svg width="33" height="32" viewBox="0 0 33 32" fill="none" xmlns="http://www.w3.org/2000/svg">
<path d="M30.875 28.6562H2.125C1.43359 28.6562 0.875 29.2148 0.875 29.9062V31.3125C0.875 31.4844 1.01562 31.625 1.1875 31.625H31.8125C31.9844 31.625 32.125 31.4844 32.125 31.3125V29.9062C32.125 29.2148 31.5664 28.6562 30.875 28.6562ZM6.56641 25.375C6.64453 25.375 6.72266 25.3672 6.80078 25.3555L13.3711 24.2031C13.4492 24.1875 13.5234 24.1523 13.5781 24.0938L30.1367 7.53516C30.1729 7.49902 30.2017 7.45609 30.2213 7.40884C30.2409 7.36158 30.251 7.31093 30.251 7.25977C30.251 7.20861 30.2409 7.15795 30.2213 7.11069C30.2017 7.06344 30.1729 7.02051 30.1367 6.98438L23.6445 0.488281C23.5703 0.414063 23.4727 0.375 23.3672 0.375C23.2617 0.375 23.1641 0.414063 23.0898 0.488281L6.53125 17.0469C6.47266 17.1055 6.4375 17.1758 6.42188 17.2539L5.26953 23.8242C5.23153 24.0335 5.24511 24.2489 5.30909 24.4517C5.37307 24.6545 5.48553 24.8387 5.63672 24.9883C5.89453 25.2383 6.21875 25.375 6.56641 25.375Z" fill="#6FD34C"/>
</svg>
