<svg width="40" height="40" viewBox="0 0 40 40" fill="none" xmlns="http://www.w3.org/2000/svg">
<path d="M5 40C3.625 40 2.44833 39.5528 1.47 38.6583C0.49 37.7623 0 36.6857 0 35.4286V14.8571C0 14.1333 0.1775 13.4476 0.5325 12.8C0.885833 12.1524 1.375 11.619 2 11.2L17 0.914286C17.4583 0.609524 17.9375 0.380952 18.4375 0.228571C18.9375 0.0761903 19.4583 0 20 0C20.5417 0 21.0625 0.0761903 21.5625 0.228571C22.0625 0.380952 22.5417 0.609524 23 0.914286L38 11.2C38.625 11.619 39.115 12.1524 39.47 12.8C39.8233 13.4476 40 14.1333 40 14.8571V35.4286C40 36.6857 39.5108 37.7623 38.5325 38.6583C37.5525 39.5528 36.375 40 35 40H33C28.5817 40 25 36.4183 25 32V29C25 26.2386 22.7614 24 20 24V24C17.2386 24 15 26.2386 15 29V32C15 36.4183 11.4183 40 7 40H5Z" fill="#537B8A"/>
</svg>
