<svg width="40" height="40" viewBox="0 0 40 40" fill="none" xmlns="http://www.w3.org/2000/svg">
<path fill-rule="evenodd" clip-rule="evenodd" d="M11.1111 8.88889C11.1111 6.53141 12.0476 4.27049 13.7146 2.60349C15.3816 0.936505 17.6425 0 20 0C22.3575 0 24.6184 0.936505 26.2854 2.60349C27.9524 4.27049 28.8889 6.53141 28.8889 8.88889C28.8889 11.2464 27.9524 13.5073 26.2854 15.1743C24.6184 16.8413 22.3575 17.7778 20 17.7778C17.6425 17.7778 15.3816 16.8413 13.7146 15.1743C12.0476 13.5073 11.1111 11.2464 11.1111 8.88889ZM11.1111 22.2222C8.16426 22.2222 5.33811 23.3929 3.25437 25.4766C1.17063 27.5603 0 30.3865 0 33.3333C0 35.1014 0.702379 36.7971 1.95262 38.0474C3.20286 39.2976 4.89856 40 6.66667 40H33.3333C35.1014 40 36.7971 39.2976 38.0474 38.0474C39.2976 36.7971 40 35.1014 40 33.3333C40 30.3865 38.8294 27.5603 36.7456 25.4766C34.6619 23.3929 31.8357 22.2222 28.8889 22.2222H11.1111Z" fill="#537B8A"/>
</svg>
